<?xml version="1.0" encoding="utf-8"?>
<!-- Generator: Adobe Illustrator 18.1.0, SVG Export Plug-In . SVG Version: 6.00 Build 0)  -->
<svg version="1.1" id="_x2014_ÎÓÈ_x5F_1" xmlns="http://www.w3.org/2000/svg" xmlns:xlink="http://www.w3.org/1999/xlink"
	 x="0px" y="0px" viewBox="0 0 336.3 745.3" enable-background="new 0 0 336.3 745.3" xml:space="preserve">
<g display="none">
	<g>
	</g>
	<g>
	</g>
	<g>
	</g>
	<g>
	</g>
	<g>
	</g>
</g>
<g>
	<polygon fill="#C6A24A" points="28.1,0 35.8,15.6 53,18.1 40.6,30.2 43.5,47.4 28.1,39.3 12.7,47.4 15.7,30.2 3.2,18.1 20.4,15.6 	
		"/>
	<polygon fill="#C6A24A" points="98.1,0 105.8,15.6 123,18.1 110.6,30.2 113.5,47.4 98.1,39.3 82.7,47.4 85.7,30.2 73.2,18.1 
		90.4,15.6 	"/>
	<polygon fill="#C6A24A" points="168.1,0 175.8,15.6 193,18.1 180.6,30.2 183.5,47.4 168.1,39.3 152.7,47.4 155.7,30.2 143.2,18.1 
		160.4,15.6 	"/>
	<polygon fill="#C6A24A" points="238.1,0 245.8,15.6 263,18.1 250.6,30.2 253.5,47.4 238.1,39.3 222.7,47.4 225.7,30.2 213.2,18.1 
		230.4,15.6 	"/>
	<polygon fill="#C6A24A" points="308.1,0 315.8,15.6 333,18.1 320.6,30.2 323.5,47.4 308.1,39.3 292.7,47.4 295.7,30.2 283.2,18.1 
		300.4,15.6 	"/>
	<polygon fill="#C6A24A" points="28.1,556.5 35.8,572.1 53,574.6 40.6,586.7 43.5,603.9 28.1,595.8 12.7,603.9 15.7,586.7 
		3.2,574.6 20.4,572.1 	"/>
	<g>
		<path fill="#C6A24A" d="M115.5,606.6l-17.4-9.1l-17.4,9.1l3.3-19.4L70,573.5l19.4-2.8l8.7-17.6l8.7,17.6l19.4,2.8l-14.1,13.7
			L115.5,606.6z M98.1,594.1l13.4,7l-2.6-14.9l10.8-10.6l-15-2.2l-6.7-13.6l-6.7,13.6l-15,2.2l10.8,10.6l-2.6,14.9L98.1,594.1z"/>
	</g>
	<g>
		<path fill="#C6A24A" d="M185.5,606.6l-17.4-9.1l-17.4,9.1l3.3-19.4L140,573.5l19.4-2.8l8.7-17.6l8.7,17.6l19.4,2.8l-14.1,13.7
			L185.5,606.6z M168.1,594.1l13.4,7l-2.6-14.9l10.8-10.6l-15-2.2l-6.7-13.6l-6.7,13.6l-15,2.2l10.8,10.6l-2.6,14.9L168.1,594.1z"/>
	</g>
	<g>
		<path fill="#C6A24A" d="M255.5,606.6l-17.4-9.1l-17.4,9.1l3.3-19.4L210,573.5l19.4-2.8l8.7-17.6l8.7,17.6l19.4,2.8l-14.1,13.7
			L255.5,606.6z M238.1,594.1l13.4,7l-2.6-14.9l10.8-10.6l-15-2.2l-6.7-13.6l-6.7,13.6l-15,2.2l10.8,10.6l-2.6,14.9L238.1,594.1z"/>
	</g>
	<g>
		<path fill="#C6A24A" d="M325.5,606.6l-17.4-9.1l-17.4,9.1l3.3-19.4L280,573.5l19.4-2.8l8.7-17.6l8.7,17.6l19.4,2.8l-14.1,13.7
			L325.5,606.6z M308.1,594.1l13.4,7l-2.6-14.9l10.8-10.6l-15-2.2l-6.7-13.6l-6.7,13.6l-15,2.2l10.8,10.6l-2.6,14.9L308.1,594.1z"/>
	</g>
	<g>
		<path fill="#C6A24A" d="M185.5,535l-17.4-9.1l-17.4,9.1l3.3-19.4L140,501.9l19.4-2.8l8.7-17.6l8.7,17.6l19.4,2.8l-14.1,13.7
			L185.5,535z M168.1,522.4l13.4,7l-2.6-14.9l10.8-10.6l-15-2.2l-6.7-13.6l-6.7,13.6l-15,2.2l10.8,10.6l-2.6,14.9L168.1,522.4z"/>
	</g>
	<g>
		<path fill="#C6A24A" d="M255.5,535l-17.4-9.1l-17.4,9.1l3.3-19.4L210,501.9l19.4-2.8l8.7-17.6l8.7,17.6l19.4,2.8l-14.1,13.7
			L255.5,535z M238.1,522.4l13.4,7l-2.6-14.9l10.8-10.6l-15-2.2l-6.7-13.6l-6.7,13.6l-15,2.2l10.8,10.6l-2.6,14.9L238.1,522.4z"/>
	</g>
	<g>
		<path fill="#C6A24A" d="M325.5,535l-17.4-9.1l-17.4,9.1l3.3-19.4L280,501.9l19.4-2.8l8.7-17.6l8.7,17.6l19.4,2.8l-14.1,13.7
			L325.5,535z M308.1,522.4l13.4,7l-2.6-14.9l10.8-10.6l-15-2.2l-6.7-13.6l-6.7,13.6l-15,2.2l10.8,10.6l-2.6,14.9L308.1,522.4z"/>
	</g>
	<g>
		<path fill="#C6A24A" d="M185.5,466l-17.4-9.1l-17.4,9.1l3.3-19.4L140,432.9l19.4-2.8l8.7-17.6l8.7,17.6l19.4,2.8l-14.1,13.7
			L185.5,466z M168.1,453.4l13.4,7l-2.6-14.9l10.8-10.6l-15-2.2l-6.7-13.6l-6.7,13.6l-15,2.2l10.8,10.6l-2.6,14.9L168.1,453.4z"/>
	</g>
	<g>
		<path fill="#C6A24A" d="M255.5,466l-17.4-9.1l-17.4,9.1l3.3-19.4L210,432.9l19.4-2.8l8.7-17.6l8.7,17.6l19.4,2.8l-14.1,13.7
			L255.5,466z M238.1,453.4l13.4,7l-2.6-14.9l10.8-10.6l-15-2.2l-6.7-13.6l-6.7,13.6l-15,2.2l10.8,10.6l-2.6,14.9L238.1,453.4z"/>
	</g>
	<g>
		<path fill="#C6A24A" d="M325.5,466l-17.4-9.1l-17.4,9.1l3.3-19.4L280,432.9l19.4-2.8l8.7-17.6l8.7,17.6l19.4,2.8l-14.1,13.7
			L325.5,466z M308.1,453.4l13.4,7l-2.6-14.9l10.8-10.6l-15-2.2l-6.7-13.6l-6.7,13.6l-15,2.2l10.8,10.6l-2.6,14.9L308.1,453.4z"/>
	</g>
	<g>
		<path fill="#C6A24A" d="M255.5,396.1l-17.4-9.1l-17.4,9.1l3.3-19.4L210,363.1l19.4-2.8l8.7-17.6l8.7,17.6l19.4,2.8l-14.1,13.7
			L255.5,396.1z M238.1,383.6l13.4,7l-2.6-14.9l10.8-10.6l-15-2.2l-6.7-13.6l-6.7,13.6l-15,2.2l10.8,10.6l-2.6,14.9L238.1,383.6z"/>
	</g>
	<g>
		<path fill="#C6A24A" d="M325.5,396.1l-17.4-9.1l-17.4,9.1l3.3-19.4L280,363.1l19.4-2.8l8.7-17.6l8.7,17.6l19.4,2.8l-14.1,13.7
			L325.5,396.1z M308.1,383.6l13.4,7l-2.6-14.9l10.8-10.6l-15-2.2l-6.7-13.6l-6.7,13.6l-15,2.2l10.8,10.6l-2.6,14.9L308.1,383.6z"/>
	</g>
	<g>
		<path fill="#C6A24A" d="M255.5,327.1l-17.4-9.1l-17.4,9.1l3.3-19.4L210,294l19.4-2.8l8.7-17.6l8.7,17.6l19.4,2.8l-14.1,13.7
			L255.5,327.1z M238.1,314.6l13.4,7l-2.6-14.9l10.8-10.6l-15-2.2l-6.7-13.6l-6.7,13.6l-15,2.2l10.8,10.6l-2.6,14.9L238.1,314.6z"/>
	</g>
	<g>
		<path fill="#C6A24A" d="M325.5,327.1l-17.4-9.1l-17.4,9.1l3.3-19.4L280,294l19.4-2.8l8.7-17.6l8.7,17.6l19.4,2.8l-14.1,13.7
			L325.5,327.1z M308.1,314.6l13.4,7l-2.6-14.9l10.8-10.6l-15-2.2l-6.7-13.6l-6.7,13.6l-15,2.2l10.8,10.6l-2.6,14.9L308.1,314.6z"/>
	</g>
	<g>
		<path fill="#C6A24A" d="M325.5,257.5l-17.4-9.1l-17.4,9.1l3.3-19.4L280,224.4l19.4-2.8l8.7-17.6l8.7,17.6l19.4,2.8l-14.1,13.7
			L325.5,257.5z M308.1,244.9l13.4,7l-2.6-14.9l10.8-10.6l-15-2.2l-6.7-13.6l-6.7,13.6l-15,2.2l10.8,10.6l-2.6,14.9L308.1,244.9z"/>
	</g>
	<g>
		<path fill="#C6A24A" d="M325.5,188.5l-17.4-9.1l-17.4,9.1l3.3-19.4L280,155.4l19.4-2.8l8.7-17.6l8.7,17.6l19.4,2.8l-14.1,13.7
			L325.5,188.5z M308.1,175.9l13.4,7L319,168l10.8-10.6l-15-2.2l-6.7-13.6l-6.7,13.6l-15,2.2l10.8,10.6l-2.6,14.9L308.1,175.9z"/>
	</g>
	<g>
		<path fill="#C6A24A" d="M45.5,675.9l-17.4-9.1l-17.4,9.1l3.3-19.4L0,642.9l19.4-2.8l8.7-17.6l8.7,17.6l19.4,2.8l-14.1,13.7
			L45.5,675.9z M28.1,663.4l13.4,7L39,655.5L49.8,645l-15-2.2l-6.7-13.6"/>
	</g>
	<g>
		<path fill="#C6A24A" d="M115.5,675.9l-17.4-9.1l-17.4,9.1l3.3-19.4L70,642.9l19.4-2.8l8.7-17.6l8.7,17.6l19.4,2.8l-14.1,13.7
			L115.5,675.9z M98.1,663.4l13.4,7l-2.6-14.9l10.8-10.6l-15-2.2l-6.7-13.6l-6.7,13.6l-15,2.2l10.8,10.6l-2.6,14.9L98.1,663.4z"/>
	</g>
	<g>
		<path fill="#C6A24A" d="M185.5,675.9l-17.4-9.1l-17.4,9.1l3.3-19.4L140,642.9l19.4-2.8l8.7-17.6l8.7,17.6l19.4,2.8l-14.1,13.7
			L185.5,675.9z M168.1,663.4l13.4,7l-2.6-14.9l10.8-10.6l-15-2.2l-6.7-13.6l-6.7,13.6l-15,2.2l10.8,10.6l-2.6,14.9L168.1,663.4z"/>
	</g>
	<g>
		<path fill="#C6A24A" d="M255.5,675.9l-17.4-9.1l-17.4,9.1l3.3-19.4L210,642.9l19.4-2.8l8.7-17.6l8.7,17.6l19.4,2.8l-14.1,13.7
			L255.5,675.9z M238.1,663.4l13.4,7l-2.6-14.9l10.8-10.6l-15-2.2l-6.7-13.6l-6.7,13.6l-15,2.2l10.8,10.6l-2.6,14.9L238.1,663.4z"/>
	</g>
	<g>
		<path fill="#C6A24A" d="M325.5,675.9l-17.4-9.1l-17.4,9.1l3.3-19.4L280,642.9l19.4-2.8l8.7-17.6l8.7,17.6l19.4,2.8l-14.1,13.7
			L325.5,675.9z M308.1,663.4l13.4,7l-2.6-14.9l10.8-10.6l-15-2.2l-6.7-13.6l-6.7,13.6l-15,2.2l10.8,10.6l-2.6,14.9L308.1,663.4z"/>
	</g>
	<g>
		<path fill="#C6A24A" d="M45.5,745.3l-17.4-9.1l-17.4,9.1l3.3-19.4L0,712.2l19.4-2.8l8.7-17.6l8.7,17.6l19.4,2.8l-14.1,13.7
			L45.5,745.3z M28.1,732.7l13.4,7L39,724.9l10.8-10.6l-15-2.2l-6.7-13.6l-6.7,13.6l-15,2.2l10.8,10.6l-2.6,14.9L28.1,732.7z"/>
	</g>
	<g>
		<path fill="#C6A24A" d="M115.5,745.3l-17.4-9.1l-17.4,9.1l3.3-19.4L70,712.2l19.4-2.8l8.7-17.6l8.7,17.6l19.4,2.8l-14.1,13.7
			L115.5,745.3z M98.1,732.7l13.4,7l-2.6-14.9l10.8-10.6l-15-2.2l-6.7-13.6l-6.7,13.6l-15,2.2l10.8,10.6l-2.6,14.9L98.1,732.7z"/>
	</g>
	<g>
		<path fill="#C6A24A" d="M185.5,745.3l-17.4-9.1l-17.4,9.1l3.3-19.4L140,712.2l19.4-2.8l8.7-17.6l8.7,17.6l19.4,2.8l-14.1,13.7
			L185.5,745.3z M168.1,732.7l13.4,7l-2.6-14.9l10.8-10.6l-15-2.2l-6.7-13.6l-6.7,13.6l-15,2.2l10.8,10.6l-2.6,14.9L168.1,732.7z"/>
	</g>
	<g>
		<path fill="#C6A24A" d="M255.5,745.3l-17.4-9.1l-17.4,9.1l3.3-19.4L210,712.2l19.4-2.8l8.7-17.6l8.7,17.6l19.4,2.8l-14.1,13.7
			L255.5,745.3z M238.1,732.7l13.4,7l-2.6-14.9l10.8-10.6l-15-2.2l-6.7-13.6l-6.7,13.6l-15,2.2l10.8,10.6l-2.6,14.9L238.1,732.7z"/>
	</g>
	<g>
		<path fill="#C6A24A" d="M325.5,745.3l-17.4-9.1l-17.4,9.1l3.3-19.4L280,712.2l19.4-2.8l8.7-17.6l8.7,17.6l19.4,2.8l-14.1,13.7
			L325.5,745.3z M308.1,732.7l13.4,7l-2.6-14.9l10.8-10.6l-15-2.2l-6.7-13.6l-6.7,13.6l-15,2.2l10.8,10.6l-2.6,14.9L308.1,732.7z"/>
	</g>
	<polygon fill="#C6A24A" points="28.1,69 35.8,84.6 53,87.1 40.6,99.2 43.5,116.4 28.1,108.3 12.7,116.4 15.7,99.2 3.2,87.1 
		20.4,84.6 	"/>
	<polygon fill="#C6A24A" points="98.1,69 105.8,84.6 123,87.1 110.6,99.2 113.5,116.4 98.1,108.3 82.7,116.4 85.7,99.2 73.2,87.1 
		90.4,84.6 	"/>
	<polygon fill="#C6A24A" points="168.1,69 175.8,84.6 193,87.1 180.6,99.2 183.5,116.4 168.1,108.3 152.7,116.4 155.7,99.2 
		143.2,87.1 160.4,84.6 	"/>
	<polygon fill="#C6A24A" points="238.1,69 245.8,84.6 263,87.1 250.6,99.2 253.5,116.4 238.1,108.3 222.7,116.4 225.7,99.2 
		213.2,87.1 230.4,84.6 	"/>
	<g>
		<path fill="#C6A24A" d="M294.1,99.8L280,86l19.4-2.8l8.7-17.6l8.7,17.6l19.4,2.8l-14.1,13.7l3.3,19.4l-17.4-9.1l-17.4,9.1
			L294.1,99.8z M308.1,106.6l13.4,7L319,98.7l10.8-10.6l-15-2.2l-6.7-13.6"/>
	</g>
	<polygon fill="#C6A24A" points="28.1,138.3 35.8,153.9 53,156.4 40.6,168.6 43.5,185.7 28.1,177.6 12.7,185.7 15.7,168.6 
		3.2,156.4 20.4,153.9 	"/>
	<polygon fill="#C6A24A" points="98.1,138.3 105.8,153.9 123,156.4 110.6,168.6 113.5,185.7 98.1,177.6 82.7,185.7 85.7,168.6 
		73.2,156.4 90.4,153.9 	"/>
	<polygon fill="#C6A24A" points="168.1,138.3 175.8,153.9 193,156.4 180.6,168.6 183.5,185.7 168.1,177.6 152.7,185.7 155.7,168.6 
		143.2,156.4 160.4,153.9 	"/>
	<polygon fill="#C6A24A" points="238.1,138.3 245.8,153.9 263,156.4 250.6,168.6 253.5,185.7 238.1,177.6 222.7,185.7 225.7,168.6 
		213.2,156.4 230.4,153.9 	"/>
	<polygon fill="#C6A24A" points="28.1,207.7 35.8,223.3 53,225.8 40.6,237.9 43.5,255.1 28.1,247 12.7,255.1 15.7,237.9 3.2,225.8 
		20.4,223.3 	"/>
	<polygon fill="#C6A24A" points="98.1,207.7 105.8,223.3 123,225.8 110.6,237.9 113.5,255.1 98.1,247 82.7,255.1 85.7,237.9 
		73.2,225.8 90.4,223.3 	"/>
	<polygon fill="#C6A24A" points="168.1,207.7 175.8,223.3 193,225.8 180.6,237.9 183.5,255.1 168.1,247 152.7,255.1 155.7,237.9 
		143.2,225.8 160.4,223.3 	"/>
	<g>
		<path fill="#C6A24A" d="M224.1,238.4L210,224.7l19.4-2.8l8.7-17.6l8.7,17.6l19.4,2.8l-14.1,13.7l3.3,19.4l-17.4-9.1l-17.4,9.1
			L224.1,238.4z M238.1,245.3l13.4,7l-2.6-14.9l10.8-10.6l-15-2.2l-6.7-13.6"/>
	</g>
	<polygon fill="#C6A24A" points="28.1,277 35.8,292.6 53,295.1 40.6,307.2 43.5,324.4 28.1,316.3 12.7,324.4 15.7,307.2 3.2,295.1 
		20.4,292.6 	"/>
	<polygon fill="#C6A24A" points="98.1,277 105.8,292.6 123,295.1 110.6,307.2 113.5,324.4 98.1,316.3 82.7,324.4 85.7,307.2 
		73.2,295.1 90.4,292.6 	"/>
	<polygon fill="#C6A24A" points="168.1,277 175.8,292.6 193,295.1 180.6,307.2 183.5,324.4 168.1,316.3 152.7,324.4 155.7,307.2 
		143.2,295.1 160.4,292.6 	"/>
	<polygon fill="#C6A24A" points="28.1,346.3 35.8,361.9 53,364.4 40.6,376.6 43.5,393.7 28.1,385.6 12.7,393.7 15.7,376.6 
		3.2,364.4 20.4,361.9 	"/>
	<polygon fill="#C6A24A" points="98.1,346.3 105.8,361.9 123,364.4 110.6,376.6 113.5,393.7 98.1,385.6 82.7,393.7 85.7,376.6 
		73.2,364.4 90.4,361.9 	"/>
	<g>
		<path fill="#C6A24A" d="M185.5,396.5l-17.4-9.1l-17.4,9.1l3.3-19.4L140,363.4l19.4-2.8l8.7-17.6l8.7,17.6l19.4,2.8l-14.1,13.7
			L185.5,396.5z M168.1,383.9l13.4,7L179,376l10.8-10.6l-15-2.2l-6.7-13.6"/>
	</g>
	<polygon fill="#C6A24A" points="28.1,415.8 35.8,431.4 53,433.9 40.6,446.1 43.5,463.2 28.1,455.1 12.7,463.2 15.7,446.1 
		3.2,433.9 20.4,431.4 	"/>
	<polygon fill="#C6A24A" points="98.1,415.8 105.8,431.4 123,433.9 110.6,446.1 113.5,463.2 98.1,455.1 82.7,463.2 85.7,446.1 
		73.2,433.9 90.4,431.4 	"/>
	<polygon fill="#C6A24A" points="28.1,485.2 35.8,500.8 53,503.3 40.6,515.4 43.5,532.6 28.1,524.5 12.7,532.6 15.7,515.4 
		3.2,503.3 20.4,500.8 	"/>
	<g>
		<path fill="#C6A24A" d="M115.5,535.3l-17.4-9.1l-17.4,9.1l3.3-19.4L70,502.2l19.4-2.8l8.7-17.6l8.7,17.6l19.4,2.8l-14.1,13.7
			L115.5,535.3z M98.1,522.8l13.4,7l-2.6-14.9l10.8-10.6l-15-2.2l-6.7-13.6"/>
	</g>
</g>
</svg>
